<svg xmlns="http://www.w3.org/2000/svg" width="420.344" height="91.66" viewBox="0 0 420.344 91.66">
  <g id="Group_61" data-name="Group 61" transform="translate(0 -0.167)">
    <path id="Path_84" data-name="Path 84" d="M338.868,66.533c-1.153-11.153-5.513-16.024-13.973-18.46v-.385c11.794-3.2,16.794-11.409,16.794-22.178C341.689,10.256,329.894,0,312.2,0H270.155V91.66h18.589V54.867h15c11.538,0,17.178,5.64,17.948,15.64.769,9.872,1.026,20.127,3.333,21.152h17.819v-.9C339.637,89.353,340.15,79.481,338.868,66.533ZM308.486,40.51H288.744V15H309c9.871,0,14.614,5.512,14.614,12.947C323.613,35.254,318.613,40.51,308.486,40.51Z" transform="translate(-55.69 0.167)"/>
    <rect id="Rectangle_33" data-name="Rectangle 33" width="18.588" height="91.66" transform="translate(401.756 0.167)"/>
    <path id="Path_85" data-name="Path 85" d="M412.933,27.178c-2.692,5.512-6.153,13.076-6.153,13.076h-.256s-3.2-7.564-6.025-13.076L386.653,0H366.4l30.51,56.278V91.66H415.5V56.278L446.008,0H426.522Z" transform="translate(-75.529 0.167)"/>
    <g id="Group_14" data-name="Group 14" transform="translate(0 20.807)">
      <path id="Path_71" data-name="Path 71" d="M0,66.753,18.46,83.8V67.65L8.2,58.549v-.256l10.256-9.1V32.781L0,49.832Z" transform="translate(0 -32.781)"/>
      <path id="Path_72" data-name="Path 72" d="M30.682,66.753,49.142,83.8V67.65l-10.256-9.1v-.256l10.256-9.1V32.781L30.682,49.832Z" transform="translate(-6.325 -32.781)"/>
    </g>
    <path id="Path_86" data-name="Path 86" d="M100.521,53.073c-1.795,5.9-3.974,14.615-3.974,14.615h-.256s-2.179-8.59-3.974-14.615L76.164,0H56.678l30.9,91.66H104.5L135.391,0H116.546Z" transform="translate(-11.684 0.167)"/>
    <path id="Path_87" data-name="Path 87" d="M186.2,51.406h42.818V36.151H186.2V15.64h48.843V0H167.616V91.66h67.815V76.148H186.2Z" transform="translate(-34.553 0.167)"/>
  </g>
</svg>
