<svg xmlns="http://www.w3.org/2000/svg" width="405.088" height="91.66" viewBox="0 0 405.088 91.66">
  <g id="Group_62" data-name="Group 62" transform="translate(-436.623 -0.167)">
    <path id="Path_88" data-name="Path 88" d="M657.385,15.64h27.562V91.66h18.588V15.64H731.1V0H657.385Z" transform="translate(-135.515 0.167)"/>
    <path id="Path_89" data-name="Path 89" d="M605.509,48.074c0,6.41.513,15.9.513,15.9h-.256s-3.461-7.82-6.41-12.82L568.846,0H550V91.66h18.332v-47.3c0-6.41-.513-16.024-.513-16.024h.256s3.59,7.819,6.538,12.691l31.28,50.637h17.948V0H605.509Z" transform="translate(-113.378 0.167)"/>
    <path id="Path_90" data-name="Path 90" d="M935.859,66.533c-1.154-11.153-5.512-16.024-13.973-18.46v-.385c11.793-3.2,16.793-11.409,16.793-22.178C938.68,10.256,926.886,0,909.2,0H867.147V91.66h18.588V54.867h15c11.537,0,17.178,5.64,17.948,15.64.768,9.872,1.025,20.127,3.333,21.152h17.82v-.9C936.629,89.353,937.141,79.481,935.859,66.533ZM905.478,40.51H885.735V15H905.99c9.871,0,14.614,5.512,14.614,12.947C920.6,35.254,915.6,40.51,905.478,40.51Z" transform="translate(-178.755 0.167)"/>
    <path id="Path_91" data-name="Path 91" d="M993.441,51.406h42.818V36.151H993.441V15.64h48.843V0H974.853V91.66h67.816V76.148H993.441Z" transform="translate(-200.958 0.167)"/>
    <path id="Path_92" data-name="Path 92" d="M783.2,51.406h42.818V36.151H783.2V15.64h48.842V0h-67.43V91.66h67.815V76.148H783.2Z" transform="translate(-157.617 0.167)"/>
  </g>
</svg>
