<svg xmlns="http://www.w3.org/2000/svg" width="429.446" height="93.711" viewBox="0 0 429.446 93.711">
  <g id="Group_63" data-name="Group 63" transform="translate(-850.555 -0.167)">
    <path id="Path_94" data-name="Path 94" d="M1378.836,48.074c0,6.41.513,15.9.513,15.9h-.256s-3.461-7.82-6.41-12.82L1342.173,0h-18.845V91.66h18.332v-47.3c0-6.41-.513-16.024-.513-16.024h.256s3.589,7.819,6.537,12.691l31.28,50.637h17.947V0h-18.332Z" transform="translate(-272.793 0.167)"/>
    <path id="Path_95" data-name="Path 95" d="M1478.315,57.3h22.05v.513c0,10.128-9.358,20.768-23.588,20.768-15.768,0-25.639-13.717-25.639-32.434,0-18.2,8.589-32.562,25.9-32.562,11.794,0,18.589,6.41,20.64,15.256h18.2C1513.582,14.878,1505.074,4.1,1490.54,0h-27.585a38.668,38.668,0,0,0-15.791,8.717c-9.614,8.845-15,22.178-15,37.433,0,13.846,4.358,25.639,11.922,34.1,7.563,8.333,18.332,13.332,32.177,13.332,10.9,0,19.486-3.718,25.768-14.229h.256l.641,12.306H1516.9V42.945h-38.587Z" transform="translate(-295.229 0.167)"/>
    <g id="Group_15" data-name="Group 15" transform="translate(1237.183 20.807)">
      <path id="Path_76" data-name="Path 76" d="M1558.443,48.934l10.256,9.1v.256l-10.256,9.1V83.8l18.46-17.05V49.832l-18.46-17.051Z" transform="translate(-1558.443 -32.781)"/>
      <path id="Path_78" data-name="Path 78" d="M1589.125,32.781V48.934l10.256,9.1v.256l-10.256,9.1V83.8l18.46-17.05V49.832Z" transform="translate(-1564.768 -32.781)"/>
    </g>
    <rect id="Rectangle_34" data-name="Rectangle 34" width="18.588" height="91.66" transform="translate(1015.667 0.167)"/>
    <path id="Path_96" data-name="Path 96" d="M1172.022,15.64h27.563V91.66h18.588V15.64h27.562V0h-73.713Z" transform="translate(-241.604 0.167)"/>
    <path id="Path_93" data-name="Path 93" d="M1112.442,36.407c-13.588-2.948-20-5.128-20-12.563,0-6.538,6.537-10.769,16.537-10.769,9.487,0,16.665,4.615,17.691,13.846h17.819C1143.412,12.8,1135.356,3.569,1122.4,0h-27.069c-12.919,3.424-21.348,12.1-21.348,25.767,0,19.1,15,23.46,31.408,27.178,13.973,3.2,22.69,5,22.69,13.973,0,8.461-8.332,11.794-17.819,11.794-13.076,0-19.357-4.358-20.639-15.383h-18.2c.641,19.357,14.743,30.383,39.613,30.383,20.64,0,35.638-10.384,35.638-28.973C1146.669,45,1131.286,40.51,1112.442,36.407Z" transform="translate(-220.864 0.167)"/>
  </g>
</svg>
