<svg xmlns="http://www.w3.org/2000/svg" width="84.737" height="93.582" viewBox="0 0 84.737 93.582">
  <path id="G" d="M1478.315,57.3h22.05v.513c0,10.128-9.358,20.768-23.588,20.768-15.768,0-25.639-13.717-25.639-32.434,0-18.2,8.589-32.562,25.9-32.562,11.794,0,18.589,6.41,20.64,15.256h18.2C1513.582,14.878,1505.074,4.1,1490.54,0h-27.585a38.668,38.668,0,0,0-15.791,8.717c-9.614,8.845-15,22.178-15,37.433,0,13.846,4.358,25.639,11.922,34.1,7.563,8.333,18.332,13.332,32.177,13.332,10.9,0,19.486-3.718,25.768-14.229h.256l.641,12.306H1516.9V42.945h-38.587Z" transform="translate(-1432.165)"/>
</svg>
