<svg xmlns="http://www.w3.org/2000/svg" width="72.687" height="91.66" viewBox="0 0 72.687 91.66">
  <path id="R1" d="M338.868,66.533c-1.153-11.153-5.513-16.024-13.973-18.46v-.385c11.794-3.2,16.794-11.409,16.794-22.178C341.689,10.256,329.894,0,312.2,0H270.155V91.66h18.589V54.867h15c11.538,0,17.178,5.64,17.948,15.64.769,9.872,1.026,20.127,3.333,21.152h17.819v-.9C339.637,89.353,340.15,79.481,338.868,66.533ZM308.486,40.51H288.744V15H309c9.871,0,14.614,5.512,14.614,12.947C323.613,35.254,318.613,40.51,308.486,40.51Z" transform="translate(-270.155)"/>
</svg>
