<svg xmlns="http://www.w3.org/2000/svg" width="72.687" height="91.66" viewBox="0 0 72.687 91.66">
  <path id="R2" d="M935.859,66.533c-1.154-11.153-5.512-16.024-13.973-18.46v-.385c11.793-3.2,16.793-11.409,16.793-22.178C938.68,10.256,926.886,0,909.2,0H867.147V91.66h18.588V54.867h15c11.537,0,17.178,5.64,17.948,15.64.768,9.872,1.025,20.127,3.333,21.152h17.82v-.9C936.629,89.353,937.141,79.481,935.859,66.533ZM905.478,40.51H885.735V15H905.99c9.871,0,14.614,5.512,14.614,12.947C920.6,35.254,915.6,40.51,905.478,40.51Z" transform="translate(-867.147)"/>
</svg>
