<svg xmlns="http://www.w3.org/2000/svg" width="75.25" height="93.711" viewBox="0 0 75.25 93.711">
  <path id="S" d="M1112.442,36.407c-13.588-2.948-20-5.128-20-12.563,0-6.538,6.537-10.769,16.537-10.769,9.487,0,16.665,4.615,17.691,13.846h17.819C1143.412,12.8,1135.356,3.569,1122.4,0h-27.069c-12.919,3.424-21.348,12.1-21.348,25.767,0,19.1,15,23.46,31.408,27.178,13.973,3.2,22.69,5,22.69,13.973,0,8.461-8.332,11.794-17.819,11.794-13.076,0-19.357-4.358-20.639-15.383h-18.2c.641,19.357,14.743,30.383,39.613,30.383,20.64,0,35.638-10.384,35.638-28.973C1146.669,45,1131.286,40.51,1112.442,36.407Z" transform="translate(-1071.419)"/>
</svg>
