<svg xmlns="http://www.w3.org/2000/svg" width="1280" height="93.711" viewBox="0 0 1280 93.711">
  <g id="Group_64" data-name="Group 64" transform="translate(0 -0.167)">
    <g id="Group_61" data-name="Group 61">
      <path id="Path_84" data-name="Path 84" d="M338.868,66.533c-1.153-11.153-5.513-16.024-13.973-18.46v-.385c11.794-3.2,16.794-11.409,16.794-22.178C341.689,10.256,329.894,0,312.2,0H270.155V91.66h18.589V54.867h15c11.538,0,17.178,5.64,17.948,15.64.769,9.872,1.026,20.127,3.333,21.152h17.819v-.9C339.637,89.353,340.15,79.481,338.868,66.533ZM308.486,40.51H288.744V15H309c9.871,0,14.614,5.512,14.614,12.947C323.613,35.254,318.613,40.51,308.486,40.51Z" transform="translate(-55.69 0.167)"/>
      <rect id="Rectangle_33" data-name="Rectangle 33" width="18.588" height="91.66" transform="translate(401.756 0.167)"/>
      <path id="Path_85" data-name="Path 85" d="M412.933,27.178c-2.692,5.512-6.153,13.076-6.153,13.076h-.256s-3.2-7.564-6.025-13.076L386.653,0H366.4l30.51,56.278V91.66H415.5V56.278L446.008,0H426.522Z" transform="translate(-75.529 0.167)"/>
      <g id="Group_14" data-name="Group 14" transform="translate(0 20.807)">
        <path id="Path_71" data-name="Path 71" d="M0,66.753,18.46,83.8V67.65L8.2,58.549v-.256l10.256-9.1V32.781L0,49.832Z" transform="translate(0 -32.781)"/>
        <path id="Path_72" data-name="Path 72" d="M30.682,66.753,49.142,83.8V67.65l-10.256-9.1v-.256l10.256-9.1V32.781L30.682,49.832Z" transform="translate(-6.325 -32.781)"/>
      </g>
      <path id="Path_86" data-name="Path 86" d="M100.521,53.073c-1.795,5.9-3.974,14.615-3.974,14.615h-.256s-2.179-8.59-3.974-14.615L76.164,0H56.678l30.9,91.66H104.5L135.391,0H116.546Z" transform="translate(-11.684 0.167)"/>
      <path id="Path_87" data-name="Path 87" d="M186.2,51.406h42.818V36.151H186.2V15.64h48.843V0H167.616V91.66h67.815V76.148H186.2Z" transform="translate(-34.553 0.167)"/>
    </g>
    <g id="Group_62" data-name="Group 62">
      <path id="Path_88" data-name="Path 88" d="M657.385,15.64h27.562V91.66h18.588V15.64H731.1V0H657.385Z" transform="translate(-135.515 0.167)"/>
      <path id="Path_89" data-name="Path 89" d="M605.509,48.074c0,6.41.513,15.9.513,15.9h-.256s-3.461-7.82-6.41-12.82L568.846,0H550V91.66h18.332v-47.3c0-6.41-.513-16.024-.513-16.024h.256s3.59,7.819,6.538,12.691l31.28,50.637h17.948V0H605.509Z" transform="translate(-113.378 0.167)"/>
      <path id="Path_90" data-name="Path 90" d="M935.859,66.533c-1.154-11.153-5.512-16.024-13.973-18.46v-.385c11.793-3.2,16.793-11.409,16.793-22.178C938.68,10.256,926.886,0,909.2,0H867.147V91.66h18.588V54.867h15c11.537,0,17.178,5.64,17.948,15.64.768,9.872,1.025,20.127,3.333,21.152h17.82v-.9C936.629,89.353,937.141,79.481,935.859,66.533ZM905.478,40.51H885.735V15H905.99c9.871,0,14.614,5.512,14.614,12.947C920.6,35.254,915.6,40.51,905.478,40.51Z" transform="translate(-178.755 0.167)"/>
      <path id="Path_91" data-name="Path 91" d="M993.441,51.406h42.818V36.151H993.441V15.64h48.843V0H974.853V91.66h67.816V76.148H993.441Z" transform="translate(-200.958 0.167)"/>
      <path id="Path_92" data-name="Path 92" d="M783.2,51.406h42.818V36.151H783.2V15.64h48.842V0h-67.43V91.66h67.815V76.148H783.2Z" transform="translate(-157.617 0.167)"/>
    </g>
    <g id="Group_63" data-name="Group 63">
      <path id="Path_94" data-name="Path 94" d="M1378.836,48.074c0,6.41.513,15.9.513,15.9h-.256s-3.461-7.82-6.41-12.82L1342.173,0h-18.845V91.66h18.332v-47.3c0-6.41-.513-16.024-.513-16.024h.256s3.589,7.819,6.537,12.691l31.28,50.637h17.947V0h-18.332Z" transform="translate(-272.793 0.167)"/>
      <path id="Path_95" data-name="Path 95" d="M1478.315,57.3h22.05v.513c0,10.128-9.358,20.768-23.588,20.768-15.768,0-25.639-13.717-25.639-32.434,0-18.2,8.589-32.562,25.9-32.562,11.794,0,18.589,6.41,20.64,15.256h18.2C1513.582,14.878,1505.074,4.1,1490.54,0h-27.585a38.668,38.668,0,0,0-15.791,8.717c-9.614,8.845-15,22.178-15,37.433,0,13.846,4.358,25.639,11.922,34.1,7.563,8.333,18.332,13.332,32.177,13.332,10.9,0,19.486-3.718,25.768-14.229h.256l.641,12.306H1516.9V42.945h-38.587Z" transform="translate(-295.229 0.167)"/>
      <g id="Group_15" data-name="Group 15" transform="translate(1237.183 20.807)">
        <path id="Path_76" data-name="Path 76" d="M1558.443,48.934l10.256,9.1v.256l-10.256,9.1V83.8l18.46-17.05V49.832l-18.46-17.051Z" transform="translate(-1558.443 -32.781)"/>
        <path id="Path_78" data-name="Path 78" d="M1589.125,32.781V48.934l10.256,9.1v.256l-10.256,9.1V83.8l18.46-17.05V49.832Z" transform="translate(-1564.768 -32.781)"/>
      </g>
      <rect id="Rectangle_34" data-name="Rectangle 34" width="18.588" height="91.66" transform="translate(1015.667 0.167)"/>
      <path id="Path_96" data-name="Path 96" d="M1172.022,15.64h27.563V91.66h18.588V15.64h27.562V0h-73.713Z" transform="translate(-241.604 0.167)"/>
      <path id="Path_93" data-name="Path 93" d="M1112.442,36.407c-13.588-2.948-20-5.128-20-12.563,0-6.538,6.537-10.769,16.537-10.769,9.487,0,16.665,4.615,17.691,13.846h17.819C1143.412,12.8,1135.356,3.569,1122.4,0h-27.069c-12.919,3.424-21.348,12.1-21.348,25.767,0,19.1,15,23.46,31.408,27.178,13.973,3.2,22.69,5,22.69,13.973,0,8.461-8.332,11.794-17.819,11.794-13.076,0-19.357-4.358-20.639-15.383h-18.2c.641,19.357,14.743,30.383,39.613,30.383,20.64,0,35.638-10.384,35.638-28.973C1146.669,45,1131.286,40.51,1112.442,36.407Z" transform="translate(-220.864 0.167)"/>
    </g>
  </g>
</svg>
