<?xml version="1.0" encoding="utf-8"?>
<!-- Generator: Adobe Illustrator 25.2.1, SVG Export Plug-In . SVG Version: 6.00 Build 0)  -->
<svg version="1.1" id="Calque_1" xmlns="http://www.w3.org/2000/svg" xmlns:xlink="http://www.w3.org/1999/xlink" x="0px" y="0px"
	 viewBox="0 0 405.1 93.7" style="enable-background:new 0 0 405.1 93.7;" xml:space="preserve">
<style type="text/css">
	.st0{fill:#FFFFFF;}
</style>
<g id="Group_62" transform="translate(-436.623 -0.167)">
	<path id="Path_88" d="M521.8,15.9h27.6v76H568v-76h27.6V0.3h-73.7L521.8,15.9L521.8,15.9z"/>
	<path id="Path_89" d="M492,48.4c0,6.4,0.5,15.9,0.5,15.9h-0.3c0,0-3.5-7.8-6.4-12.8L455.4,0.3h-18.8V92h18.3V44.7
		c0-6.4-0.5-16-0.5-16h0.3c0,0,3.6,7.8,6.5,12.7L492.5,92h17.9V0.3h-18.3L492,48.4L492,48.4z"/>
	<path id="Path_90" d="M757.2,66.8c-1.2-11.2-5.5-16-14-18.5v-0.4C755,44.7,760,36.5,760,25.7c0-15.3-11.8-25.5-29.5-25.5h-42.1
		v91.7H707V55.2h15c11.5,0,17.2,5.6,17.9,15.6c0.8,9.9,1,20.1,3.3,21.2H761v-0.9C758,89.6,758.5,79.8,757.2,66.8z M726.7,40.8H707
		V15.3h20.3c9.9,0,14.6,5.5,14.6,12.9C741.8,35.5,736.8,40.8,726.7,40.8z"/>
	<path id="Path_91" d="M792.6,51.7h42.8V36.4h-42.8V15.9h48.8V0.3H774V92h67.8V76.4h-49.2V51.7L792.6,51.7z"/>
	<path id="Path_92" d="M625.6,51.7h42.8V36.4h-42.8V15.9h48.8V0.3H607V92h67.8V76.4h-49.2V51.7z"/>
</g>
<rect x="339.7" y="91.8" class="st0" width="12.4" height="1.9"/>
</svg>
