<?xml version="1.0" encoding="utf-8"?>
<!-- Generator: Adobe Illustrator 25.2.1, SVG Export Plug-In . SVG Version: 6.00 Build 0)  -->
<svg version="1.1" id="Calque_1" xmlns="http://www.w3.org/2000/svg" xmlns:xlink="http://www.w3.org/1999/xlink" x="0px" y="0px"
	 viewBox="0 0 429.4 93.7" style="enable-background:new 0 0 429.4 93.7;" xml:space="preserve">
<g id="Group_63" transform="translate(-850.555 -0.167)">
	<path id="Path_94" d="M1106,48.2c0,6.4,0.5,15.9,0.5,15.9h-0.3c0,0-3.5-7.8-6.4-12.8l-30.5-51.2h-18.8v91.7h18.3V44.5
		c0-6.4-0.5-16-0.5-16h0.3c0,0,3.6,7.8,6.5,12.7l31.3,50.6h17.9V0.2H1106L1106,48.2z"/>
	<path id="Path_95" d="M1183.1,57.5h22V58c0,10.1-9.4,20.8-23.6,20.8c-15.8,0-25.6-13.7-25.6-32.4c0-18.2,8.6-32.6,25.9-32.6
		c11.8,0,18.6,6.4,20.6,15.3h18.2c-2.3-14-10.8-24.7-25.3-28.8h-27.6c-5.9,1.6-11.3,4.6-15.8,8.7c-9.6,8.8-15,22.2-15,37.4
		c0,13.8,4.4,25.6,11.9,34.1c7.6,8.3,18.3,13.3,32.2,13.3c10.9,0,19.5-3.7,25.8-14.2h0.3l0.6,12.3h14V43.1h-38.6L1183.1,57.5z"/>
	<g id="Group_15" transform="translate(1237.183 20.807)">
		<path id="Path_76" d="M0,16.2l10.3,9.1v0.3L0,34.6V51l18.5-17V17.1L0,0V16.2z"/>
		<path id="Path_78" d="M24.4,0v16.2l10.3,9.1v0.3l-10.3,9.1V51l18.5-17V17.1L24.4,0z"/>
	</g>
	<rect id="Rectangle_34" x="1015.7" y="0.2" width="18.6" height="91.7"/>
	<path id="Path_96" d="M930.4,15.8H958v76h18.6v-76h27.6V0.2h-73.7V15.8z"/>
	<path id="Path_93" d="M891.6,36.6c-13.6-2.9-20-5.1-20-12.6c0-6.5,6.5-10.8,16.5-10.8c9.5,0,16.7,4.6,17.7,13.8h17.8
		c-1.1-14.1-9.1-23.4-22.1-26.9h-27.1c-12.9,3.4-21.3,12.1-21.3,25.8c0,19.1,15,23.5,31.4,27.2c14,3.2,22.7,5,22.7,14
		c0,8.5-8.3,11.8-17.8,11.8c-13.1,0-19.4-4.4-20.6-15.4h-18.2c0.6,19.4,14.7,30.4,39.6,30.4c20.6,0,35.6-10.4,35.6-29
		C925.8,45.2,910.4,40.7,891.6,36.6z"/>
</g>
</svg>
