<?xml version="1.0" encoding="utf-8"?>
<!-- Generator: Adobe Illustrator 25.2.1, SVG Export Plug-In . SVG Version: 6.00 Build 0)  -->
<svg version="1.1" id="Calque_1" xmlns="http://www.w3.org/2000/svg" xmlns:xlink="http://www.w3.org/1999/xlink" x="0px" y="0px"
	 viewBox="0 0 420.3 93.7" style="enable-background:new 0 0 420.3 93.7;" xml:space="preserve">
<style type="text/css">
	.st0{fill:#FFFFFF;}
</style>
<g>
	<g id="Group_61" transform="translate(0 -0.167)">
		<path id="Path_84" d="M283.2,66.9c-1.2-11.2-5.5-16-14-18.5V48C281,44.9,286,36.6,286,25.9c0-15.3-11.8-25.5-29.5-25.5h-42v91.7
			h18.6V55.2h15c11.5,0,17.2,5.6,17.9,15.6c0.8,9.9,1,20.1,3.3,21.2h17.8v-0.9C283.9,89.7,284.5,79.8,283.2,66.9z M252.8,40.9h-19.7
			V15.4h20.3c9.9,0,14.6,5.5,14.6,12.9C267.9,35.6,262.9,40.9,252.8,40.9z"/>
		<rect id="Rectangle_33" x="401.8" y="0.4" width="18.6" height="91.7"/>
		<path id="Path_85" d="M337.4,27.5c-2.7,5.5-6.2,13.1-6.2,13.1H331c0,0-3.2-7.6-6-13.1L311.1,0.4h-20.3l30.5,56.3v35.4H340V56.6
			l30.5-56.3H351L337.4,27.5z"/>
		<g id="Group_14" transform="translate(0 20.807)">
			<path id="Path_71" d="M0,34.2l18.5,17V35.1L8.2,26v-0.3l10.3-9.1V0.2L0,17.3V34.2z"/>
			<path id="Path_72" d="M24.4,34.2l18.5,17V35.1L32.6,26v-0.3l10.3-9.1V0.2L24.4,17.3V34.2z"/>
		</g>
		<path id="Path_86" d="M88.8,53.4c-1.8,5.9-4,14.6-4,14.6h-0.3c0,0-2.2-8.6-4-14.6l-16-53H45l30.9,91.7h16.9l30.9-91.7h-18.8
			L88.8,53.4z"/>
		<path id="Path_87" d="M151.6,51.8h42.8V36.5h-42.8V16h48.8V0.4H133v91.7h67.8V76.5h-49.2V51.8z"/>
	</g>
	<rect x="340.7" y="91.9" class="st0" width="9.2" height="1.7"/>
</g>
</svg>
